<svg width="16" height="15" viewBox="0 0 16 15" xmlns="http://www.w3.org/2000/svg"><defs><filter x="-50%" y="-50%" width="200%" height="200%" filterUnits="objectBoundingBox" id="a"><feOffset dy="1" in="SourceAlpha" result="shadowOffsetInner1"/><feGaussianBlur stdDeviation=".5" in="shadowOffsetInner1" result="shadowBlurInner1"/><feComposite in="shadowBlurInner1" in2="SourceAlpha" operator="arithmetic" k2="-1" k3="1" result="shadowInnerInner1"/><feColorMatrix values="0 0 0 0 0 0 0 0 0 0 0 0 0 0 0 0 0 0 0.7 0" in="shadowInnerInner1" result="shadowMatrixInner1"/><feMerge><feMergeNode in="SourceGraphic"/><feMergeNode in="shadowMatrixInner1"/></feMerge></filter></defs><path d="M5.105 9h9.402c.825 0 1.493-.666 1.493-1.5 0-.828-.664-1.5-1.493-1.5h-9.228l2.829-2.829c.585-.585.588-1.529-.002-2.119-.586-.586-1.536-.586-2.119-.002l-4.954 4.954c-.428.428-.545 1.05-.344 1.584-.2.534-.084 1.155.344 1.584l4.954 4.954c.584.584 1.533.584 2.119-.002.59-.59.587-1.535.002-2.119l-3.003-3.003z" fill="#6D6D6D" filter="url(#a)"/></svg>