<?xml version="1.0" encoding="UTF-8" standalone="no"?>
<svg width="19px" height="19px" viewBox="0 0 19 19" version="1.1" xmlns="http://www.w3.org/2000/svg" xmlns:xlink="http://www.w3.org/1999/xlink" xmlns:sketch="http://www.bohemiancoding.com/sketch/ns">
    <title>LS quick tour frames</title>
    <description>Created with Sketch (http://www.bohemiancoding.com/sketch)</description>
    <defs>
        <filter x="-50%" y="-50%" width="200%" height="200%" filterUnits="objectBoundingBox" id="filter-1">
            <feOffset dx="1" dy="1" in="SourceAlpha" result="shadowOffsetInner1"></feOffset>
            <feGaussianBlur stdDeviation="1.5" in="shadowOffsetInner1" result="shadowBlurInner1"></feGaussianBlur>
            <feComposite in="shadowBlurInner1" in2="SourceAlpha" operator="arithmetic" k2="-1" k3="1" result="shadowInnerInner1"></feComposite>
            <feColorMatrix values="0 0 0 0 0   0 0 0 0 0   0 0 0 0 0  0 0 0 0.7 0" in="shadowInnerInner1" type="matrix" result="shadowMatrixInner1"></feColorMatrix>
            <feMerge>
                <feMergeNode in="SourceGraphic"></feMergeNode>
                <feMergeNode in="shadowMatrixInner1"></feMergeNode>
            </feMerge>
        </filter>
    </defs>
    <g id="Frame-10" stroke="none" stroke-width="1" fill="none" fill-rule="evenodd" sketch:type="MSPage">
        <g id="Browser" sketch:type="MSLayerGroup" transform="translate(-454.000000, -44.000000)" filter="url(#filter-1)" fill="#16AD97">
            <path d="M463.5,63 C468.746705,63 473,58.7467054 473,53.5 C473,48.2532946 468.746705,44 463.5,44 C458.253295,44 454,48.2532946 454,53.5 C454,58.7467054 458.253295,63 463.5,63 Z M463.536,58 L458.22,58 L458.22,49.6 L459.864,49.6 L459.864,56.536 L463.536,56.536 L463.536,58 Z M468.012,55.744 C468.012,55.4879987 467.918001,55.2800008 467.73,55.12 C467.541999,54.9599992 467.306001,54.8140007 467.022,54.682 C466.737999,54.5499993 466.430002,54.4140007 466.098,54.274 C465.765998,54.1339993 465.458001,53.962001 465.174,53.758 C464.889999,53.553999 464.654001,53.3000015 464.466,52.996 C464.277999,52.6919985 464.184,52.3040024 464.184,51.832 C464.184,51.423998 464.251999,51.0700015 464.388,50.77 C464.524001,50.4699985 464.717999,50.220001 464.97,50.02 C465.222001,49.819999 465.519998,49.6720005 465.864,49.576 C466.208002,49.4799995 466.591998,49.432 467.016,49.432 C467.504002,49.432 467.963998,49.4739996 468.396,49.558 C468.828002,49.6420004 469.183999,49.7639992 469.464,49.924 L468.948,51.304 C468.771999,51.1919994 468.508002,51.0900005 468.156,50.998 C467.803998,50.9059995 467.424002,50.86 467.016,50.86 C466.631998,50.86 466.338001,50.9359992 466.134,51.088 C465.929999,51.2400008 465.828,51.4439987 465.828,51.7 C465.828,51.9400012 465.921999,52.1399992 466.11,52.3 C466.298001,52.4600008 466.533999,52.6079993 466.818,52.744 C467.102001,52.8800007 467.409998,53.0199993 467.742,53.164 C468.074002,53.3080007 468.381999,53.481999 468.666,53.686 C468.950001,53.890001 469.185999,54.1419985 469.374,54.442 C469.562001,54.7420015 469.656,55.1159978 469.656,55.564 C469.656,56.0120022 469.582001,56.3979984 469.434,56.722 C469.285999,57.0460016 469.078001,57.3159989 468.81,57.532 C468.541999,57.7480011 468.218002,57.9079995 467.838,58.012 C467.457998,58.1160005 467.040002,58.168 466.584,58.168 C465.983997,58.168 465.456002,58.1120006 465,58 C464.543998,57.8879994 464.208001,57.7760006 463.992,57.664 L464.52,56.26 C464.608,56.3080002 464.721999,56.3599997 464.862,56.416 C465.002001,56.4720003 465.159999,56.5239998 465.336,56.572 C465.512001,56.6200002 465.697999,56.6599998 465.894,56.692 C466.090001,56.7240002 466.291999,56.74 466.5,56.74 C466.988002,56.74 467.361999,56.6580008 467.622,56.494 C467.882001,56.3299992 468.012,56.0800017 468.012,55.744 Z" id="Icon-active" sketch:type="MSShapeGroup"></path>
        </g>
    </g>
</svg>