<svg width="20" height="20" viewBox="0 0 32 32" xmlns="http://www.w3.org/2000/svg"><path fill="#fff" d="M27.877 19.662c.385-1.23.607-2.531.607-3.884 0-7.222-5.83-13.101-13.029-13.194v4.238c4.863.093 8.793 4.071 8.793 8.956 0 .678-.088 1.332-.232 1.966l-3.963-1.966 2.76 8.199 8.197-2.762-3.133-1.553zM7.752 16.222c0-.678.088-1.332.232-1.967l3.963 1.967-2.76-8.199-8.197 2.762 3.133 1.553c-.384 1.23-.607 2.531-.607 3.885 0 7.223 5.83 13.1 13.03 13.194v-4.238c-4.864-.093-8.794-4.072-8.794-8.957z"/></svg>